<svg xmlns="http://www.w3.org/2000/svg" xmlns:xlink="http://www.w3.org/1999/xlink" zoomAndPan="magnify" preserveAspectRatio="xMidYMid meet" version="1.0" viewBox="117.78 111.09 140.09 100.76"><defs><g><g id="id1"/></g><clipPath id="id2"><path d="M 158.855469 111.085938 L 215.855469 111.085938 L 215.855469 177.835938 L 158.855469 177.835938 Z M 158.855469 111.085938 " clip-rule="nonzero"/></clipPath></defs><g fill="rgb(100%, 100%, 100%)" fill-opacity="1"><g transform="translate(115.556314, 211.846114)"><g><path d="M 2.21875 0 L 2.21875 -23.359375 L 8.140625 -23.359375 L 8.140625 -14.0625 L 15.375 -23.359375 L 21.921875 -23.359375 L 13.6875 -13.1875 L 21.921875 0 L 15.625 0 L 10.359375 -9.03125 L 8.140625 -6.3125 L 8.140625 0 Z M 2.21875 0 "/></g></g></g><g fill="rgb(100%, 100%, 100%)" fill-opacity="1"><g transform="translate(140.708068, 211.846114)"><g><path d="M 2.0625 -6.71875 L 2.0625 -10.9375 L 12.515625 -10.9375 L 12.515625 -6.71875 Z M 2.0625 -6.71875 "/></g></g></g><g fill="rgb(100%, 100%, 100%)" fill-opacity="1"><g transform="translate(158.511034, 211.846114)"><g><path d="M 1.421875 0 L 1.421875 -4.96875 L 12.203125 -17.421875 L 12.203125 -18.53125 L 2.1875 -18.53125 L 2.1875 -23.359375 L 20.125 -23.359375 L 20.125 -18.375 L 9.375 -5.921875 L 9.375 -4.8125 L 20.125 -4.8125 L 20.125 0 Z M 1.421875 0 "/></g></g></g><g fill="rgb(100%, 100%, 100%)" fill-opacity="1"><g transform="translate(183.282673, 211.846114)"><g><path d="M 5.109375 0 L 1.578125 -3.515625 L 1.578125 -19.84375 L 5.109375 -23.359375 L 18.796875 -23.359375 L 22.3125 -19.84375 L 22.3125 -3.515625 L 18.796875 0 Z M 8.65625 -4.5 L 15.3125 -4.5 L 16.421875 -5.609375 L 16.421875 -17.75 L 15.234375 -18.859375 L 8.65625 -18.859375 L 7.515625 -17.75 L 7.515625 -5.609375 Z M 8.65625 -4.5 "/></g></g></g><g fill="rgb(100%, 100%, 100%)" fill-opacity="1"><g transform="translate(210.398325, 211.846114)"><g><path d="M 2.21875 0 L 2.21875 -23.359375 L 8.6875 -23.359375 L 16.546875 -9.34375 L 16.546875 -23.359375 L 22.046875 -23.359375 L 22.046875 0 L 16.546875 0 L 8.875 -13.6875 L 7.734375 -13.6875 L 7.734375 0 Z M 2.21875 0 "/></g></g></g><g fill="rgb(100%, 100%, 100%)" fill-opacity="1"><g transform="translate(237.894081, 211.846114)"><g><path d="M 2.21875 0 L 2.21875 -23.359375 L 19.96875 -23.359375 L 19.96875 -18.53125 L 8.140625 -18.53125 L 8.140625 -14.234375 L 18.796875 -14.234375 L 18.796875 -9.765625 L 8.140625 -9.765625 L 8.140625 -4.8125 L 19.96875 -4.8125 L 19.96875 0 Z M 2.21875 0 "/></g></g></g><g clip-path="url(#id2)"><path fill="rgb(54.899597%, 32.159424%, 100%)" d="M 215.621094 160.644531 L 215.621094 128.464844 C 215.621094 128.253906 215.511719 128.050781 215.324219 127.945312 L 187.542969 111.832031 C 187.355469 111.726562 187.132812 111.726562 186.945312 111.832031 L 159.160156 127.945312 C 158.96875 128.050781 158.855469 128.253906 158.855469 128.464844 L 158.855469 160.644531 C 158.855469 160.859375 158.96875 161.058594 159.152344 161.164062 L 186.941406 177.28125 C 187.035156 177.332031 187.136719 177.363281 187.238281 177.363281 C 187.339844 177.363281 187.445312 177.335938 187.535156 177.28125 L 215.316406 161.164062 C 215.507812 161.058594 215.621094 160.863281 215.621094 160.644531 Z M 160.054688 129.511719 L 186.664062 144.894531 L 186.664062 175.730469 L 160.054688 160.300781 Z M 187.859375 175.707031 L 187.859375 144.867188 L 214.425781 129.503906 L 214.425781 160.296875 Z M 187.859375 175.707031 " fill-opacity="1" fill-rule="nonzero"/></g></svg>